<svg width="24" height="24" viewBox="0 0 24 24" fill="none" xmlns="http://www.w3.org/2000/svg">
<rect width="24" height="24" fill="#1E1E1E"/>
<g id="Home | Ballecoffee" clip-path="url(#clip0_1_5)">
<rect width="1440" height="1451" transform="translate(-176 -439)" fill="#1F1517"/>
<g id="Hero Banner" clip-path="url(#clip1_1_5)">
<rect width="1440" height="504" transform="translate(-176 -371)" fill="#181012"/>
<g id="Hero Text">
<g id="Frame 1">
<g id="Frame 1_2">
<g id="Explore dezenas de varia&#195;&#167;&#195;&#181;es da bebida favorita entre os devs ao redor mundo!">
<path d="M-14.2386 30V15.4545H-5.46023V17.017H-12.4773V21.9318H-5.91477V23.4943H-12.4773V28.4375H-5.34659V30H-14.2386ZM-1.26278 19.0909L1.35085 23.5511L3.96449 19.0909H5.89631L2.37358 24.5455L5.89631 30H3.96449L1.35085 25.767L-1.26278 30H-3.1946L0.271307 24.5455L-3.1946 19.0909H-1.26278ZM8.288 34.0909V19.0909H9.90732V20.8239H10.1062C10.2293 20.6345 10.3997 20.393 10.6175 20.0994C10.8401 19.8011 11.1573 19.536 11.5692 19.304C11.9859 19.0672 12.5494 18.9489 13.2596 18.9489C14.1781 18.9489 14.9878 19.1785 15.6886 19.6378C16.3893 20.0971 16.9362 20.7481 17.3292 21.5909C17.7222 22.4337 17.9187 23.428 17.9187 24.5739C17.9187 25.7292 17.7222 26.7306 17.3292 27.5781C16.9362 28.4209 16.3917 29.0743 15.6957 29.5384C14.9996 29.9976 14.1971 30.2273 13.288 30.2273C12.5872 30.2273 12.0262 30.1113 11.6048 29.8793C11.1834 29.6425 10.859 29.375 10.6317 29.0767C10.4045 28.7737 10.2293 28.5227 10.1062 28.3239H9.96413V34.0909H8.288ZM9.93572 24.5455C9.93572 25.3693 10.0565 26.0961 10.2979 26.7259C10.5394 27.3509 10.8922 27.8409 11.3562 28.196C11.8202 28.5464 12.3884 28.7216 13.0607 28.7216C13.7615 28.7216 14.3462 28.5369 14.815 28.1676C15.2885 27.7936 15.6436 27.2917 15.8803 26.6619C16.1218 26.0275 16.2425 25.322 16.2425 24.5455C16.2425 23.7784 16.1242 23.0871 15.8874 22.4716C15.6554 21.8513 15.3027 21.3613 14.8292 21.0014C14.3604 20.6368 13.771 20.4545 13.0607 20.4545C12.3789 20.4545 11.806 20.6274 11.342 20.973C10.878 21.3139 10.5276 21.7921 10.2908 22.4077C10.0541 23.0185 9.93572 23.7311 9.93572 24.5455ZM22.1516 15.4545V30H20.4755V15.4545H22.1516ZM29.6534 30.2273C28.6686 30.2273 27.8045 29.9929 27.0611 29.5241C26.3224 29.0554 25.7448 28.3996 25.3281 27.5568C24.9162 26.714 24.7102 25.7292 24.7102 24.6023C24.7102 23.4659 24.9162 22.474 25.3281 21.6264C25.7448 20.7789 26.3224 20.1207 27.0611 19.652C27.8045 19.1832 28.6686 18.9489 29.6534 18.9489C30.6383 18.9489 31.5 19.1832 32.2386 19.652C32.982 20.1207 33.5597 20.7789 33.9716 21.6264C34.3883 22.474 34.5966 23.4659 34.5966 24.6023C34.5966 25.7292 34.3883 26.714 33.9716 27.5568C33.5597 28.3996 32.982 29.0554 32.2386 29.5241C31.5 29.9929 30.6383 30.2273 29.6534 30.2273ZM29.6534 28.7216C30.4015 28.7216 31.017 28.5298 31.5 28.1463C31.983 27.7628 32.3404 27.2585 32.5724 26.6335C32.8045 26.0085 32.9205 25.3314 32.9205 24.6023C32.9205 23.8731 32.8045 23.1937 32.5724 22.5639C32.3404 21.9342 31.983 21.4252 31.5 21.0369C31.017 20.6487 30.4015 20.4545 29.6534 20.4545C28.9053 20.4545 28.2898 20.6487 27.8068 21.0369C27.3239 21.4252 26.9664 21.9342 26.7344 22.5639C26.5024 23.1937 26.3864 23.8731 26.3864 24.6023C26.3864 25.3314 26.5024 26.0085 26.7344 26.6335C26.9664 27.2585 27.3239 27.7628 27.8068 28.1463C28.2898 28.5298 28.9053 28.7216 29.6534 28.7216ZM37.1552 30V19.0909H38.7745V20.7386H38.8881C39.087 20.1989 39.4469 19.7609 39.9677 19.4247C40.4885 19.0885 41.0756 18.9205 41.729 18.9205C41.8522 18.9205 42.006 18.9228 42.1907 18.9276C42.3754 18.9323 42.515 18.9394 42.6097 18.9489V20.6534C42.5529 20.6392 42.4227 20.6179 42.2191 20.5895C42.0202 20.5563 41.8095 20.5398 41.587 20.5398C41.0567 20.5398 40.5832 20.651 40.1665 20.8736C39.7546 21.0914 39.4279 21.3944 39.1864 21.7827C38.9497 22.1662 38.8313 22.6042 38.8313 23.0966V30H37.1552ZM48.8384 30.2273C47.7873 30.2273 46.8806 29.9953 46.1183 29.5312C45.3607 29.0625 44.7759 28.4091 44.364 27.571C43.9568 26.7282 43.7532 25.7481 43.7532 24.6307C43.7532 23.5133 43.9568 22.5284 44.364 21.6761C44.7759 20.8191 45.3488 20.1515 46.0827 19.6733C46.8214 19.1903 47.6831 18.9489 48.668 18.9489C49.2362 18.9489 49.7972 19.0436 50.3512 19.233C50.9052 19.4223 51.4094 19.7301 51.864 20.1562C52.3185 20.5777 52.6808 21.1364 52.9506 21.8324C53.2205 22.5284 53.3555 23.3854 53.3555 24.4034V25.1136H44.9464V23.6648H51.6509C51.6509 23.0492 51.5278 22.5 51.2816 22.017C51.0401 21.5341 50.6945 21.1529 50.2447 20.8736C49.7996 20.5942 49.274 20.4545 48.668 20.4545C48.0004 20.4545 47.4227 20.6203 46.935 20.9517C46.4521 21.2784 46.0804 21.7045 45.82 22.2301C45.5595 22.7557 45.4293 23.3191 45.4293 23.9205V24.8864C45.4293 25.7102 45.5714 26.4086 45.8555 26.9815C46.1443 27.5497 46.5444 27.983 47.0558 28.2812C47.5671 28.5748 48.1613 28.7216 48.8384 28.7216C49.2788 28.7216 49.6765 28.66 50.0316 28.5369C50.3915 28.4091 50.7016 28.2197 50.962 27.9688C51.2224 27.7131 51.4237 27.3958 51.5657 27.017L53.185 27.4716C53.0146 28.0208 52.7281 28.5038 52.3256 28.9205C51.9232 29.3324 51.426 29.6544 50.8342 29.8864C50.2423 30.1136 49.5771 30.2273 48.8384 30.2273ZM65.6495 30.2273C64.7404 30.2273 63.9379 29.9976 63.2418 29.5384C62.5458 29.0743 62.0013 28.4209 61.6083 27.5781C61.2153 26.7306 61.0188 25.7292 61.0188 24.5739C61.0188 23.428 61.2153 22.4337 61.6083 21.5909C62.0013 20.7481 62.5482 20.0971 63.2489 19.6378C63.9497 19.1785 64.7594 18.9489 65.6779 18.9489C66.3881 18.9489 66.9492 19.0672 67.3612 19.304C67.7778 19.536 68.0951 19.8011 68.3129 20.0994C68.5354 20.393 68.7082 20.6345 68.8313 20.8239H68.9734V15.4545H70.6495V30H69.0302V28.3239H68.8313C68.7082 28.5227 68.533 28.7737 68.3058 29.0767C68.0785 29.375 67.7541 29.6425 67.3327 29.8793C66.9113 30.1113 66.3503 30.2273 65.6495 30.2273ZM65.8768 28.7216C66.5491 28.7216 67.1173 28.5464 67.5813 28.196C68.0453 27.8409 68.3981 27.3509 68.6396 26.7259C68.881 26.0961 69.0018 25.3693 69.0018 24.5455C69.0018 23.7311 68.8834 23.0185 68.6467 22.4077C68.4099 21.7921 68.0595 21.3139 67.5955 20.973C67.1315 20.6274 66.5586 20.4545 65.8768 20.4545C65.1665 20.4545 64.5747 20.6368 64.1012 21.0014C63.6325 21.3613 63.2797 21.8513 63.043 22.4716C62.811 23.0871 62.695 23.7784 62.695 24.5455C62.695 25.322 62.8133 26.0275 63.0501 26.6619C63.2915 27.2917 63.6467 27.7936 64.1154 28.1676C64.5889 28.5369 65.176 28.7216 65.8768 28.7216ZM78.5259 30.2273C77.4748 30.2273 76.5681 29.9953 75.8058 29.5312C75.0482 29.0625 74.4634 28.4091 74.0515 27.571C73.6443 26.7282 73.4407 25.7481 73.4407 24.6307C73.4407 23.5133 73.6443 22.5284 74.0515 21.6761C74.4634 20.8191 75.0363 20.1515 75.7702 19.6733C76.5089 19.1903 77.3706 18.9489 78.3555 18.9489C78.9237 18.9489 79.4847 19.0436 80.0387 19.233C80.5927 19.4223 81.0969 19.7301 81.5515 20.1562C82.006 20.5777 82.3683 21.1364 82.6381 21.8324C82.908 22.5284 83.043 23.3854 83.043 24.4034V25.1136H74.6339V23.6648H81.3384C81.3384 23.0492 81.2153 22.5 80.9691 22.017C80.7276 21.5341 80.382 21.1529 79.9322 20.8736C79.4871 20.5942 78.9615 20.4545 78.3555 20.4545C77.6879 20.4545 77.1102 20.6203 76.6225 20.9517C76.1396 21.2784 75.7679 21.7045 75.5075 22.2301C75.247 22.7557 75.1168 23.3191 75.1168 23.9205V24.8864C75.1168 25.7102 75.2589 26.4086 75.543 26.9815C75.8318 27.5497 76.2319 27.983 76.7433 28.2812C77.2546 28.5748 77.8488 28.7216 78.5259 28.7216C78.9663 28.7216 79.364 28.66 79.7191 28.5369C80.079 28.4091 80.3891 28.2197 80.6495 27.9688C80.9099 27.7131 81.1112 27.3958 81.2532 27.017L82.8725 27.4716C82.7021 28.0208 82.4156 28.5038 82.0131 28.9205C81.6107 29.3324 81.1135 29.6544 80.5217 29.8864C79.9298 30.1136 79.2646 30.2273 78.5259 30.2273ZM85.2802 30V28.7216L91.4734 20.767V20.6534H85.479V19.0909H93.6325V20.4261L87.6097 28.3239V28.4375H93.8313V30H85.2802ZM100.674 30.2273C99.6232 30.2273 98.7165 29.9953 97.9542 29.5312C97.1966 29.0625 96.6119 28.4091 96.1999 27.571C95.7927 26.7282 95.5891 25.7481 95.5891 24.6307C95.5891 23.5133 95.7927 22.5284 96.1999 21.6761C96.6119 20.8191 97.1848 20.1515 97.9187 19.6733C98.6573 19.1903 99.5191 18.9489 100.504 18.9489C101.072 18.9489 101.633 19.0436 102.187 19.233C102.741 19.4223 103.245 19.7301 103.7 20.1562C104.154 20.5777 104.517 21.1364 104.787 21.8324C105.056 22.5284 105.191 23.3854 105.191 24.4034V25.1136H96.7823V23.6648H103.487C103.487 23.0492 103.364 22.5 103.118 22.017C102.876 21.5341 102.53 21.1529 102.081 20.8736C101.636 20.5942 101.11 20.4545 100.504 20.4545C99.8363 20.4545 99.2586 20.6203 98.771 20.9517C98.288 21.2784 97.9163 21.7045 97.6559 22.2301C97.3955 22.7557 97.2653 23.3191 97.2653 23.9205V24.8864C97.2653 25.7102 97.4073 26.4086 97.6914 26.9815C97.9802 27.5497 98.3803 27.983 98.8917 28.2812C99.4031 28.5748 99.9973 28.7216 100.674 28.7216C101.115 28.7216 101.512 28.66 101.868 28.5369C102.227 28.4091 102.538 28.2197 102.798 27.9688C103.058 27.7131 103.26 27.3958 103.402 27.017L105.021 27.4716C104.85 28.0208 104.564 28.5038 104.162 28.9205C103.759 29.3324 103.262 29.6544 102.67 29.8864C102.078 30.1136 101.413 30.2273 100.674 30.2273ZM109.417 23.4375V30H107.741V19.0909H109.36V20.7955H109.502C109.758 20.2415 110.146 19.7964 110.667 19.4602C111.188 19.1193 111.86 18.9489 112.684 18.9489C113.423 18.9489 114.069 19.1004 114.623 19.4034C115.177 19.7017 115.608 20.1562 115.916 20.767C116.224 21.3731 116.377 22.1402 116.377 23.0682V30H114.701V23.1818C114.701 22.3248 114.479 21.6572 114.034 21.179C113.589 20.696 112.978 20.4545 112.201 20.4545C111.666 20.4545 111.188 20.5705 110.767 20.8026C110.35 21.0346 110.021 21.3731 109.779 21.8182C109.538 22.2633 109.417 22.803 109.417 23.4375ZM122.651 30.2557C121.959 30.2557 121.332 30.1255 120.768 29.8651C120.205 29.5999 119.758 29.2188 119.426 28.7216C119.095 28.2197 118.929 27.6136 118.929 26.9034C118.929 26.2784 119.052 25.7718 119.298 25.3835C119.545 24.9905 119.874 24.6828 120.286 24.4602C120.697 24.2377 121.152 24.072 121.649 23.9631C122.151 23.8494 122.655 23.7595 123.162 23.6932C123.825 23.608 124.362 23.544 124.774 23.5014C125.191 23.4541 125.494 23.3759 125.683 23.267C125.877 23.1581 125.974 22.9687 125.974 22.6989V22.642C125.974 21.9413 125.783 21.3968 125.399 21.0085C125.02 20.6203 124.445 20.4261 123.673 20.4261C122.873 20.4261 122.246 20.6013 121.791 20.9517C121.337 21.3021 121.017 21.6761 120.832 22.0739L119.241 21.5057C119.526 20.8428 119.904 20.3267 120.378 19.9574C120.856 19.5833 121.377 19.3229 121.94 19.1761C122.509 19.0246 123.067 18.9489 123.616 18.9489C123.967 18.9489 124.369 18.9915 124.824 19.0767C125.283 19.1572 125.726 19.3253 126.152 19.581C126.583 19.8366 126.94 20.2225 127.224 20.7386C127.509 21.2547 127.651 21.946 127.651 22.8125V30H125.974V28.5227H125.889C125.776 28.7595 125.586 29.0128 125.321 29.2827C125.056 29.5526 124.703 29.7822 124.263 29.9716C123.822 30.161 123.285 30.2557 122.651 30.2557ZM122.906 28.75C123.569 28.75 124.128 28.6198 124.582 28.3594C125.042 28.099 125.387 27.7628 125.619 27.3509C125.856 26.9389 125.974 26.5057 125.974 26.0511V24.517C125.903 24.6023 125.747 24.6804 125.506 24.7514C125.269 24.8177 124.994 24.8769 124.682 24.929C124.374 24.9763 124.073 25.0189 123.78 25.0568C123.491 25.09 123.257 25.1184 123.077 25.142C122.641 25.1989 122.234 25.2912 121.855 25.419C121.481 25.5421 121.178 25.7292 120.946 25.9801C120.719 26.2263 120.605 26.5625 120.605 26.9886C120.605 27.571 120.821 28.0114 121.251 28.3097C121.687 28.6032 122.239 28.75 122.906 28.75ZM138.437 21.5341L136.931 21.9602C136.837 21.7093 136.697 21.4654 136.512 21.2287C136.333 20.9872 136.086 20.7884 135.774 20.6321C135.461 20.4759 135.061 20.3977 134.574 20.3977C133.906 20.3977 133.35 20.5516 132.904 20.8594C132.464 21.1624 132.244 21.5483 132.244 22.017C132.244 22.4337 132.395 22.7628 132.699 23.0043C133.002 23.2457 133.475 23.447 134.119 23.608L135.738 24.0057C136.714 24.2424 137.44 24.6046 137.919 25.0923C138.397 25.5753 138.636 26.1979 138.636 26.9602C138.636 27.5852 138.456 28.1439 138.096 28.6364C137.741 29.1288 137.244 29.517 136.605 29.8011C135.966 30.0852 135.222 30.2273 134.375 30.2273C133.262 30.2273 132.341 29.9858 131.612 29.5028C130.883 29.0199 130.421 28.3144 130.227 27.3864L131.818 26.9886C131.969 27.5758 132.256 28.0161 132.677 28.3097C133.103 28.6032 133.66 28.75 134.346 28.75C135.127 28.75 135.748 28.5843 136.207 28.2528C136.671 27.9167 136.903 27.5142 136.903 27.0455C136.903 26.6667 136.77 26.3494 136.505 26.0938C136.24 25.8333 135.833 25.6392 135.284 25.5114L133.466 25.0852C132.467 24.8485 131.733 24.4815 131.264 23.9844C130.8 23.4825 130.568 22.8551 130.568 22.1023C130.568 21.4867 130.741 20.9422 131.086 20.4688C131.437 19.9953 131.913 19.6236 132.514 19.3537C133.12 19.0838 133.806 18.9489 134.574 18.9489C135.653 18.9489 136.501 19.1856 137.116 19.6591C137.736 20.1326 138.177 20.7576 138.437 21.5341ZM150.903 30.2273C149.994 30.2273 149.192 29.9976 148.496 29.5384C147.8 29.0743 147.255 28.4209 146.862 27.5781C146.469 26.7306 146.273 25.7292 146.273 24.5739C146.273 23.428 146.469 22.4337 146.862 21.5909C147.255 20.7481 147.802 20.0971 148.503 19.6378C149.204 19.1785 150.013 18.9489 150.932 18.9489C151.642 18.9489 152.203 19.0672 152.615 19.304C153.032 19.536 153.349 19.8011 153.567 20.0994C153.789 20.393 153.962 20.6345 154.085 20.8239H154.227V15.4545H155.903V30H154.284V28.3239H154.085C153.962 28.5227 153.787 28.7737 153.56 29.0767C153.332 29.375 153.008 29.6425 152.587 29.8793C152.165 30.1113 151.604 30.2273 150.903 30.2273ZM151.131 28.7216C151.803 28.7216 152.371 28.5464 152.835 28.196C153.299 27.8409 153.652 27.3509 153.893 26.7259C154.135 26.0961 154.256 25.3693 154.256 24.5455C154.256 23.7311 154.137 23.0185 153.901 22.4077C153.664 21.7921 153.313 21.3139 152.849 20.973C152.385 20.6274 151.813 20.4545 151.131 20.4545C150.42 20.4545 149.829 20.6368 149.355 21.0014C148.886 21.3613 148.534 21.8513 148.297 22.4716C148.065 23.0871 147.949 23.7784 147.949 24.5455C147.949 25.322 148.067 26.0275 148.304 26.6619C148.545 27.2917 148.901 27.7936 149.369 28.1676C149.843 28.5369 150.43 28.7216 151.131 28.7216ZM163.78 30.2273C162.729 30.2273 161.822 29.9953 161.06 29.5312C160.302 29.0625 159.717 28.4091 159.305 27.571C158.898 26.7282 158.695 25.7481 158.695 24.6307C158.695 23.5133 158.898 22.5284 159.305 21.6761C159.717 20.8191 160.29 20.1515 161.024 19.6733C161.763 19.1903 162.625 18.9489 163.609 18.9489C164.178 18.9489 164.739 19.0436 165.293 19.233C165.847 19.4223 166.351 19.7301 166.805 20.1562C167.26 20.5777 167.622 21.1364 167.892 21.8324C168.162 22.5284 168.297 23.3854 168.297 24.4034V25.1136H159.888V23.6648H166.592C166.592 23.0492 166.469 22.5 166.223 22.017C165.982 21.5341 165.636 21.1529 165.186 20.8736C164.741 20.5942 164.215 20.4545 163.609 20.4545C162.942 20.4545 162.364 20.6203 161.876 20.9517C161.393 21.2784 161.022 21.7045 160.761 22.2301C160.501 22.7557 160.371 23.3191 160.371 23.9205V24.8864C160.371 25.7102 160.513 26.4086 160.797 26.9815C161.086 27.5497 161.486 27.983 161.997 28.2812C162.509 28.5748 163.103 28.7216 163.78 28.7216C164.22 28.7216 164.618 28.66 164.973 28.5369C165.333 28.4091 165.643 28.2197 165.903 27.9688C166.164 27.7131 166.365 27.3958 166.507 27.017L168.126 27.4716C167.956 28.0208 167.67 28.5038 167.267 28.9205C166.865 29.3324 166.367 29.6544 165.776 29.8864C165.184 30.1136 164.518 30.2273 163.78 30.2273ZM185.392 19.0909L181.358 30H179.653L175.619 19.0909H177.438L180.449 27.7841H180.562L183.574 19.0909H185.392ZM190.483 30.2557C189.791 30.2557 189.164 30.1255 188.6 29.8651C188.037 29.5999 187.59 29.2188 187.258 28.7216C186.927 28.2197 186.761 27.6136 186.761 26.9034C186.761 26.2784 186.884 25.7718 187.13 25.3835C187.377 24.9905 187.706 24.6828 188.118 24.4602C188.529 24.2377 188.984 24.072 189.481 23.9631C189.983 23.8494 190.487 23.7595 190.994 23.6932C191.657 23.608 192.194 23.544 192.606 23.5014C193.023 23.4541 193.326 23.3759 193.515 23.267C193.709 23.1581 193.806 22.9687 193.806 22.6989V22.642C193.806 21.9413 193.615 21.3968 193.231 21.0085C192.852 20.6203 192.277 20.4261 191.505 20.4261C190.705 20.4261 190.078 20.6013 189.623 20.9517C189.169 21.3021 188.849 21.6761 188.664 22.0739L187.074 21.5057C187.358 20.8428 187.736 20.3267 188.21 19.9574C188.688 19.5833 189.209 19.3229 189.772 19.1761C190.341 19.0246 190.899 18.9489 191.449 18.9489C191.799 18.9489 192.201 18.9915 192.656 19.0767C193.115 19.1572 193.558 19.3253 193.984 19.581C194.415 19.8366 194.772 20.2225 195.056 20.7386C195.341 21.2547 195.483 21.946 195.483 22.8125V30H193.806V28.5227H193.721C193.608 28.7595 193.418 29.0128 193.153 29.2827C192.888 29.5526 192.535 29.7822 192.095 29.9716C191.654 30.161 191.117 30.2557 190.483 30.2557ZM190.738 28.75C191.401 28.75 191.96 28.6198 192.414 28.3594C192.874 28.099 193.219 27.7628 193.451 27.3509C193.688 26.9389 193.806 26.5057 193.806 26.0511V24.517C193.735 24.6023 193.579 24.6804 193.338 24.7514C193.101 24.8177 192.826 24.8769 192.514 24.929C192.206 24.9763 191.905 25.0189 191.612 25.0568C191.323 25.09 191.089 25.1184 190.909 25.142C190.473 25.1989 190.066 25.2912 189.687 25.419C189.313 25.5421 189.01 25.7292 188.778 25.9801C188.551 26.2263 188.437 26.5625 188.437 26.9886C188.437 27.571 188.653 28.0114 189.083 28.3097C189.519 28.6032 190.071 28.75 190.738 28.75ZM198.542 30V19.0909H200.161V20.7386H200.275C200.474 20.1989 200.834 19.7609 201.354 19.4247C201.875 19.0885 202.462 18.9205 203.116 18.9205C203.239 18.9205 203.393 18.9228 203.577 18.9276C203.762 18.9323 203.902 18.9394 203.996 18.9489V20.6534C203.94 20.6392 203.809 20.6179 203.606 20.5895C203.407 20.5563 203.196 20.5398 202.974 20.5398C202.443 20.5398 201.97 20.651 201.553 20.8736C201.141 21.0914 200.815 21.3944 200.573 21.7827C200.336 22.1662 200.218 22.6042 200.218 23.0966V30H198.542ZM205.983 30V19.0909H207.659V30H205.983ZM206.836 17.2727C206.509 17.2727 206.227 17.1615 205.99 16.9389C205.758 16.7164 205.642 16.4489 205.642 16.1364C205.642 15.8239 205.758 15.5563 205.99 15.3338C206.227 15.1113 206.509 15 206.836 15C207.162 15 207.442 15.1113 207.674 15.3338C207.91 15.5563 208.029 15.8239 208.029 16.1364C208.029 16.4489 207.91 16.7164 207.674 16.9389C207.442 17.1615 207.162 17.2727 206.836 17.2727ZM213.94 30.2557C213.248 30.2557 212.621 30.1255 212.058 29.8651C211.494 29.5999 211.047 29.2188 210.715 28.7216C210.384 28.2197 210.218 27.6136 210.218 26.9034C210.218 26.2784 210.341 25.7718 210.587 25.3835C210.834 24.9905 211.163 24.6828 211.575 24.4602C211.987 24.2377 212.441 24.072 212.938 23.9631C213.44 23.8494 213.944 23.7595 214.451 23.6932C215.114 23.608 215.651 23.544 216.063 23.5014C216.48 23.4541 216.783 23.3759 216.972 23.267C217.166 23.1581 217.263 22.9687 217.263 22.6989V22.642C217.263 21.9413 217.072 21.3968 216.688 21.0085C216.309 20.6203 215.734 20.4261 214.962 20.4261C214.162 20.4261 213.535 20.6013 213.08 20.9517C212.626 21.3021 212.306 21.6761 212.121 22.0739L210.531 21.5057C210.815 20.8428 211.193 20.3267 211.667 19.9574C212.145 19.5833 212.666 19.3229 213.229 19.1761C213.798 19.0246 214.356 18.9489 214.906 18.9489C215.256 18.9489 215.658 18.9915 216.113 19.0767C216.572 19.1572 217.015 19.3253 217.441 19.581C217.872 19.8366 218.229 20.2225 218.513 20.7386C218.798 21.2547 218.94 21.946 218.94 22.8125V30H217.263V28.5227H217.178C217.065 28.7595 216.875 29.0128 216.61 29.2827C216.345 29.5526 215.992 29.7822 215.552 29.9716C215.112 30.161 214.574 30.2557 213.94 30.2557ZM214.195 28.75C214.858 28.75 215.417 28.6198 215.871 28.3594C216.331 28.099 216.676 27.7628 216.908 27.3509C217.145 26.9389 217.263 26.5057 217.263 26.0511V24.517C217.192 24.6023 217.036 24.6804 216.795 24.7514C216.558 24.8177 216.283 24.8769 215.971 24.929C215.663 24.9763 215.362 25.0189 215.069 25.0568C214.78 25.09 214.546 25.1184 214.366 25.142C213.93 25.1989 213.523 25.2912 213.144 25.419C212.77 25.5421 212.467 25.7292 212.235 25.9801C212.008 26.2263 211.894 26.5625 211.894 26.9886C211.894 27.571 212.11 28.0114 212.54 28.3097C212.976 28.6032 213.528 28.75 214.195 28.75ZM226.431 30.2273C225.408 30.2273 224.527 29.9858 223.789 29.5028C223.05 29.0199 222.482 28.3546 222.084 27.5071C221.686 26.6596 221.488 25.6913 221.488 24.6023C221.488 23.4943 221.691 22.5166 222.098 21.669C222.51 20.8168 223.083 20.1515 223.817 19.6733C224.556 19.1903 225.417 18.9489 226.402 18.9489C227.169 18.9489 227.861 19.0909 228.476 19.375C229.092 19.6591 229.596 20.0568 229.989 20.5682C230.382 21.0795 230.626 21.6761 230.721 22.358H229.044C228.917 21.8608 228.632 21.4205 228.192 21.0369C227.757 20.6487 227.169 20.4545 226.431 20.4545C225.777 20.4545 225.204 20.625 224.712 20.9659C224.224 21.3021 223.843 21.7779 223.569 22.3935C223.299 23.0043 223.164 23.7216 223.164 24.5455C223.164 25.3883 223.296 26.1222 223.561 26.7472C223.831 27.3722 224.21 27.8575 224.698 28.2031C225.19 28.5488 225.768 28.7216 226.431 28.7216C226.866 28.7216 227.262 28.6458 227.617 28.4943C227.972 28.3428 228.273 28.125 228.519 27.8409C228.765 27.5568 228.94 27.2159 229.044 26.8182H230.721C230.626 27.4621 230.391 28.0421 230.017 28.5582C229.648 29.0696 229.158 29.4768 228.547 29.7798C227.941 30.0781 227.236 30.2273 226.431 30.2273ZM225.635 29.9432H227.027L226.914 30.5114C227.283 30.5682 227.622 30.7221 227.929 30.973C228.237 31.2287 228.391 31.6335 228.391 32.1875C228.391 32.7983 228.138 33.2955 227.631 33.679C227.129 34.0672 226.388 34.2614 225.408 34.2614L225.351 33.1534C225.792 33.1534 226.156 33.0824 226.445 32.9403C226.739 32.803 226.885 32.571 226.885 32.2443C226.885 31.9176 226.765 31.6951 226.523 31.5767C226.282 31.4583 225.891 31.3778 225.351 31.3352L225.635 29.9432ZM237.603 30.2273C236.618 30.2273 235.754 29.9929 235.01 29.5241C234.272 29.0554 233.694 28.3996 233.277 27.5568C232.865 26.714 232.659 25.7292 232.659 24.6023C232.659 23.4659 232.865 22.474 233.277 21.6264C233.694 20.7789 234.272 20.1207 235.01 19.652C235.754 19.1832 236.618 18.9489 237.603 18.9489C238.587 18.9489 239.449 19.1832 240.188 19.652C240.931 20.1207 241.509 20.7789 241.921 21.6264C242.337 22.474 242.546 23.4659 242.546 24.6023C242.546 25.7292 242.337 26.714 241.921 27.5568C241.509 28.3996 240.931 29.0554 240.188 29.5241C239.449 29.9929 238.587 30.2273 237.603 30.2273ZM237.603 28.7216C238.351 28.7216 238.966 28.5298 239.449 28.1463C239.932 27.7628 240.29 27.2585 240.522 26.6335C240.754 26.0085 240.87 25.3314 240.87 24.6023C240.87 23.8731 240.754 23.1937 240.522 22.5639C240.29 21.9342 239.932 21.4252 239.449 21.0369C238.966 20.6487 238.351 20.4545 237.603 20.4545C236.855 20.4545 236.239 20.6487 235.756 21.0369C235.273 21.4252 234.916 21.9342 234.684 22.5639C234.452 23.1937 234.336 23.8731 234.336 24.6023C234.336 25.3314 234.452 26.0085 234.684 26.6335C234.916 27.2585 235.273 27.7628 235.756 28.1463C236.239 28.5298 236.855 28.7216 237.603 28.7216ZM235.415 17.7841L234.108 17.7273C234.108 17.0028 234.314 16.411 234.726 15.9517C235.143 15.4877 235.657 15.2557 236.267 15.2557C236.537 15.2557 236.776 15.303 236.985 15.3977C237.193 15.4877 237.392 15.5919 237.581 15.7102C237.771 15.8286 237.965 15.9351 238.164 16.0298C238.367 16.1198 238.597 16.1648 238.853 16.1648C239.123 16.1648 239.35 16.0606 239.534 15.8523C239.724 15.6392 239.819 15.3835 239.819 15.0852L241.097 15.1989C241.097 15.9375 240.889 16.5246 240.472 16.9602C240.06 17.3958 239.549 17.6136 238.938 17.6136C238.611 17.6136 238.341 17.5687 238.128 17.4787C237.915 17.384 237.726 17.2775 237.56 17.1591C237.394 17.0407 237.219 16.9366 237.034 16.8466C236.85 16.7519 236.623 16.7045 236.353 16.7045C236.083 16.7045 235.858 16.8111 235.678 17.0241C235.503 17.2325 235.415 17.4858 235.415 17.7841ZM249.678 30.2273C248.627 30.2273 247.72 29.9953 246.958 29.5312C246.201 29.0625 245.616 28.4091 245.204 27.571C244.797 26.7282 244.593 25.7481 244.593 24.6307C244.593 23.5133 244.797 22.5284 245.204 21.6761C245.616 20.8191 246.189 20.1515 246.923 19.6733C247.661 19.1903 248.523 18.9489 249.508 18.9489C250.076 18.9489 250.637 19.0436 251.191 19.233C251.745 19.4223 252.249 19.7301 252.704 20.1562C253.158 20.5777 253.521 21.1364 253.79 21.8324C254.06 22.5284 254.195 23.3854 254.195 24.4034V25.1136H245.786V23.6648H252.491C252.491 23.0492 252.368 22.5 252.121 22.017C251.88 21.5341 251.534 21.1529 251.085 20.8736C250.639 20.5942 250.114 20.4545 249.508 20.4545C248.84 20.4545 248.263 20.6203 247.775 20.9517C247.292 21.2784 246.92 21.7045 246.66 22.2301C246.399 22.7557 246.269 23.3191 246.269 23.9205V24.8864C246.269 25.7102 246.411 26.4086 246.695 26.9815C246.984 27.5497 247.384 27.983 247.896 28.2812C248.407 28.5748 249.001 28.7216 249.678 28.7216C250.119 28.7216 250.516 28.66 250.871 28.5369C251.231 28.4091 251.541 28.2197 251.802 27.9688C252.062 27.7131 252.263 27.3958 252.406 27.017L254.025 27.4716C253.854 28.0208 253.568 28.5038 253.165 28.9205C252.763 29.3324 252.266 29.6544 251.674 29.8864C251.082 30.1136 250.417 30.2273 249.678 30.2273ZM264.472 21.5341L262.967 21.9602C262.872 21.7093 262.732 21.4654 262.548 21.2287C262.368 20.9872 262.121 20.7884 261.809 20.6321C261.496 20.4759 261.096 20.3977 260.609 20.3977C259.941 20.3977 259.385 20.5516 258.94 20.8594C258.499 21.1624 258.279 21.5483 258.279 22.017C258.279 22.4337 258.431 22.7628 258.734 23.0043C259.037 23.2457 259.51 23.447 260.154 23.608L261.773 24.0057C262.749 24.2424 263.476 24.6046 263.954 25.0923C264.432 25.5753 264.671 26.1979 264.671 26.9602C264.671 27.5852 264.491 28.1439 264.131 28.6364C263.776 29.1288 263.279 29.517 262.64 29.8011C262.001 30.0852 261.257 30.2273 260.41 30.2273C259.297 30.2273 258.376 29.9858 257.647 29.5028C256.918 29.0199 256.456 28.3144 256.262 27.3864L257.853 26.9886C258.004 27.5758 258.291 28.0161 258.712 28.3097C259.138 28.6032 259.695 28.75 260.381 28.75C261.163 28.75 261.783 28.5843 262.242 28.2528C262.706 27.9167 262.938 27.5142 262.938 27.0455C262.938 26.6667 262.806 26.3494 262.54 26.0938C262.275 25.8333 261.868 25.6392 261.319 25.5114L259.501 25.0852C258.502 24.8485 257.768 24.4815 257.299 23.9844C256.835 23.4825 256.603 22.8551 256.603 22.1023C256.603 21.4867 256.776 20.9422 257.121 20.4688C257.472 19.9953 257.948 19.6236 258.549 19.3537C259.155 19.0838 259.842 18.9489 260.609 18.9489C261.688 18.9489 262.536 19.1856 263.151 19.6591C263.772 20.1326 264.212 20.7576 264.472 21.5341ZM276.939 30.2273C276.029 30.2273 275.227 29.9976 274.531 29.5384C273.835 29.0743 273.29 28.4209 272.897 27.5781C272.504 26.7306 272.308 25.7292 272.308 24.5739C272.308 23.428 272.504 22.4337 272.897 21.5909C273.29 20.7481 273.837 20.0971 274.538 19.6378C275.239 19.1785 276.048 18.9489 276.967 18.9489C277.677 18.9489 278.238 19.0672 278.65 19.304C279.067 19.536 279.384 19.8011 279.602 20.0994C279.824 20.393 279.997 20.6345 280.12 20.8239H280.262V15.4545H281.939V30H280.319V28.3239H280.12C279.997 28.5227 279.822 28.7737 279.595 29.0767C279.368 29.375 279.043 29.6425 278.622 29.8793C278.2 30.1113 277.639 30.2273 276.939 30.2273ZM277.166 28.7216C277.838 28.7216 278.406 28.5464 278.87 28.196C279.334 27.8409 279.687 27.3509 279.929 26.7259C280.17 26.0961 280.291 25.3693 280.291 24.5455C280.291 23.7311 280.172 23.0185 279.936 22.4077C279.699 21.7921 279.349 21.3139 278.885 20.973C278.421 20.6274 277.848 20.4545 277.166 20.4545C276.456 20.4545 275.864 20.6368 275.39 21.0014C274.922 21.3613 274.569 21.8513 274.332 22.4716C274.1 23.0871 273.984 23.7784 273.984 24.5455C273.984 25.322 274.102 26.0275 274.339 26.6619C274.581 27.2917 274.936 27.7936 275.404 28.1676C275.878 28.5369 276.465 28.7216 277.166 28.7216ZM288.451 30.2557C287.76 30.2557 287.133 30.1255 286.569 29.8651C286.006 29.5999 285.558 29.2188 285.227 28.7216C284.895 28.2197 284.73 27.6136 284.73 26.9034C284.73 26.2784 284.853 25.7718 285.099 25.3835C285.345 24.9905 285.674 24.6828 286.086 24.4602C286.498 24.2377 286.953 24.072 287.45 23.9631C287.952 23.8494 288.456 23.7595 288.963 23.6932C289.626 23.608 290.163 23.544 290.575 23.5014C290.992 23.4541 291.295 23.3759 291.484 23.267C291.678 23.1581 291.775 22.9687 291.775 22.6989V22.642C291.775 21.9413 291.583 21.3968 291.2 21.0085C290.821 20.6203 290.246 20.4261 289.474 20.4261C288.674 20.4261 288.047 20.6013 287.592 20.9517C287.137 21.3021 286.818 21.6761 286.633 22.0739L285.042 21.5057C285.326 20.8428 285.705 20.3267 286.179 19.9574C286.657 19.5833 287.178 19.3229 287.741 19.1761C288.309 19.0246 288.868 18.9489 289.417 18.9489C289.768 18.9489 290.17 18.9915 290.625 19.0767C291.084 19.1572 291.527 19.3253 291.953 19.581C292.384 19.8366 292.741 20.2225 293.025 20.7386C293.309 21.2547 293.451 21.946 293.451 22.8125V30H291.775V28.5227H291.69C291.576 28.7595 291.387 29.0128 291.122 29.2827C290.857 29.5526 290.504 29.7822 290.064 29.9716C289.623 30.161 289.086 30.2557 288.451 30.2557ZM288.707 28.75C289.37 28.75 289.929 28.6198 290.383 28.3594C290.842 28.099 291.188 27.7628 291.42 27.3509C291.657 26.9389 291.775 26.5057 291.775 26.0511V24.517C291.704 24.6023 291.548 24.6804 291.306 24.7514C291.07 24.8177 290.795 24.8769 290.483 24.929C290.175 24.9763 289.874 25.0189 289.581 25.0568C289.292 25.09 289.057 25.1184 288.877 25.142C288.442 25.1989 288.035 25.2912 287.656 25.419C287.282 25.5421 286.979 25.7292 286.747 25.9801C286.52 26.2263 286.406 26.5625 286.406 26.9886C286.406 27.571 286.621 28.0114 287.052 28.3097C287.488 28.6032 288.039 28.75 288.707 28.75ZM302.363 30V15.4545H304.039V20.8239H304.181C304.304 20.6345 304.475 20.393 304.692 20.0994C304.915 19.8011 305.232 19.536 305.644 19.304C306.061 19.0672 306.624 18.9489 307.335 18.9489C308.253 18.9489 309.063 19.1785 309.763 19.6378C310.464 20.0971 311.011 20.7481 311.404 21.5909C311.797 22.4337 311.994 23.428 311.994 24.5739C311.994 25.7292 311.797 26.7306 311.404 27.5781C311.011 28.4209 310.467 29.0743 309.771 29.5384C309.075 29.9976 308.272 30.2273 307.363 30.2273C306.662 30.2273 306.101 30.1113 305.68 29.8793C305.258 29.6425 304.934 29.375 304.707 29.0767C304.479 28.7737 304.304 28.5227 304.181 28.3239H303.982V30H302.363ZM304.011 24.5455C304.011 25.3693 304.131 26.0961 304.373 26.7259C304.614 27.3509 304.967 27.8409 305.431 28.196C305.895 28.5464 306.463 28.7216 307.136 28.7216C307.836 28.7216 308.421 28.5369 308.89 28.1676C309.363 27.7936 309.719 27.2917 309.955 26.6619C310.197 26.0275 310.317 25.322 310.317 24.5455C310.317 23.7784 310.199 23.0871 309.962 22.4716C309.73 21.8513 309.378 21.3613 308.904 21.0014C308.435 20.6368 307.846 20.4545 307.136 20.4545C306.454 20.4545 305.881 20.6274 305.417 20.973C304.953 21.3139 304.603 21.7921 304.366 22.4077C304.129 23.0185 304.011 23.7311 304.011 24.5455ZM319.131 30.2273C318.08 30.2273 317.174 29.9953 316.411 29.5312C315.654 29.0625 315.069 28.4091 314.657 27.571C314.25 26.7282 314.046 25.7481 314.046 24.6307C314.046 23.5133 314.25 22.5284 314.657 21.6761C315.069 20.8191 315.642 20.1515 316.376 19.6733C317.114 19.1903 317.976 18.9489 318.961 18.9489C319.529 18.9489 320.09 19.0436 320.644 19.233C321.198 19.4223 321.702 19.7301 322.157 20.1562C322.612 20.5777 322.974 21.1364 323.244 21.8324C323.513 22.5284 323.648 23.3854 323.648 24.4034V25.1136H315.239V23.6648H321.944C321.944 23.0492 321.821 22.5 321.575 22.017C321.333 21.5341 320.987 21.1529 320.538 20.8736C320.093 20.5942 319.567 20.4545 318.961 20.4545C318.293 20.4545 317.716 20.6203 317.228 20.9517C316.745 21.2784 316.373 21.7045 316.113 22.2301C315.853 22.7557 315.722 23.3191 315.722 23.9205V24.8864C315.722 25.7102 315.864 26.4086 316.148 26.9815C316.437 27.5497 316.837 27.983 317.349 28.2812C317.86 28.5748 318.454 28.7216 319.131 28.7216C319.572 28.7216 319.969 28.66 320.325 28.5369C320.684 28.4091 320.995 28.2197 321.255 27.9688C321.515 27.7131 321.717 27.3958 321.859 27.017L323.478 27.4716C323.308 28.0208 323.021 28.5038 322.619 28.9205C322.216 29.3324 321.719 29.6544 321.127 29.8864C320.535 30.1136 319.87 30.2273 319.131 30.2273ZM326.425 30V15.4545H328.102V20.8239H328.244C328.367 20.6345 328.537 20.393 328.755 20.0994C328.978 19.8011 329.295 19.536 329.707 19.304C330.123 19.0672 330.687 18.9489 331.397 18.9489C332.316 18.9489 333.125 19.1785 333.826 19.6378C334.527 20.0971 335.074 20.7481 335.467 21.5909C335.86 22.4337 336.056 23.428 336.056 24.5739C336.056 25.7292 335.86 26.7306 335.467 27.5781C335.074 28.4209 334.529 29.0743 333.833 29.5384C333.137 29.9976 332.335 30.2273 331.425 30.2273C330.725 30.2273 330.164 30.1113 329.742 29.8793C329.321 29.6425 328.996 29.375 328.769 29.0767C328.542 28.7737 328.367 28.5227 328.244 28.3239H328.045V30H326.425ZM328.073 24.5455C328.073 25.3693 328.194 26.0961 328.435 26.7259C328.677 27.3509 329.03 27.8409 329.494 28.196C329.958 28.5464 330.526 28.7216 331.198 28.7216C331.899 28.7216 332.484 28.5369 332.952 28.1676C333.426 27.7936 333.781 27.2917 334.018 26.6619C334.259 26.0275 334.38 25.322 334.38 24.5455C334.38 23.7784 334.262 23.0871 334.025 22.4716C333.793 21.8513 333.44 21.3613 332.967 21.0014C332.498 20.6368 331.908 20.4545 331.198 20.4545C330.516 20.4545 329.943 20.6274 329.479 20.973C329.015 21.3139 328.665 21.7921 328.428 22.4077C328.192 23.0185 328.073 23.7311 328.073 24.5455ZM338.62 30V19.0909H340.296V30H338.62ZM339.472 17.2727C339.146 17.2727 338.864 17.1615 338.627 16.9389C338.395 16.7164 338.279 16.4489 338.279 16.1364C338.279 15.8239 338.395 15.5563 338.627 15.3338C338.864 15.1113 339.146 15 339.472 15C339.799 15 340.078 15.1113 340.31 15.3338C340.547 15.5563 340.665 15.8239 340.665 16.1364C340.665 16.4489 340.547 16.7164 340.31 16.9389C340.078 17.1615 339.799 17.2727 339.472 17.2727ZM347.485 30.2273C346.576 30.2273 345.774 29.9976 345.078 29.5384C344.382 29.0743 343.837 28.4209 343.444 27.5781C343.051 26.7306 342.855 25.7292 342.855 24.5739C342.855 23.428 343.051 22.4337 343.444 21.5909C343.837 20.7481 344.384 20.0971 345.085 19.6378C345.786 19.1785 346.595 18.9489 347.514 18.9489C348.224 18.9489 348.785 19.0672 349.197 19.304C349.614 19.536 349.931 19.8011 350.149 20.0994C350.371 20.393 350.544 20.6345 350.667 20.8239H350.809V15.4545H352.485V30H350.866V28.3239H350.667C350.544 28.5227 350.369 28.7737 350.142 29.0767C349.914 29.375 349.59 29.6425 349.169 29.8793C348.747 30.1113 348.186 30.2273 347.485 30.2273ZM347.713 28.7216C348.385 28.7216 348.953 28.5464 349.417 28.196C349.881 27.8409 350.234 27.3509 350.475 26.7259C350.717 26.0961 350.838 25.3693 350.838 24.5455C350.838 23.7311 350.719 23.0185 350.483 22.4077C350.246 21.7921 349.895 21.3139 349.431 20.973C348.967 20.6274 348.395 20.4545 347.713 20.4545C347.002 20.4545 346.411 20.6368 345.937 21.0014C345.468 21.3613 345.116 21.8513 344.879 22.4716C344.647 23.0871 344.531 23.7784 344.531 24.5455C344.531 25.322 344.649 26.0275 344.886 26.6619C345.127 27.2917 345.483 27.7936 345.951 28.1676C346.425 28.5369 347.012 28.7216 347.713 28.7216ZM358.998 30.2557C358.307 30.2557 357.68 30.1255 357.116 29.8651C356.553 29.5999 356.105 29.2188 355.774 28.7216C355.442 28.2197 355.277 27.6136 355.277 26.9034C355.277 26.2784 355.4 25.7718 355.646 25.3835C355.892 24.9905 356.221 24.6828 356.633 24.4602C357.045 24.2377 357.5 24.072 357.997 23.9631C358.499 23.8494 359.003 23.7595 359.51 23.6932C360.172 23.608 360.71 23.544 361.122 23.5014C361.538 23.4541 361.842 23.3759 362.031 23.267C362.225 23.1581 362.322 22.9687 362.322 22.6989V22.642C362.322 21.9413 362.13 21.3968 361.747 21.0085C361.368 20.6203 360.793 20.4261 360.021 20.4261C359.221 20.4261 358.593 20.6013 358.139 20.9517C357.684 21.3021 357.365 21.6761 357.18 22.0739L355.589 21.5057C355.873 20.8428 356.252 20.3267 356.725 19.9574C357.204 19.5833 357.725 19.3229 358.288 19.1761C358.856 19.0246 359.415 18.9489 359.964 18.9489C360.315 18.9489 360.717 18.9915 361.172 19.0767C361.631 19.1572 362.074 19.3253 362.5 19.581C362.931 19.8366 363.288 20.2225 363.572 20.7386C363.856 21.2547 363.998 21.946 363.998 22.8125V30H362.322V28.5227H362.237C362.123 28.7595 361.934 29.0128 361.669 29.2827C361.404 29.5526 361.051 29.7822 360.61 29.9716C360.17 30.161 359.633 30.2557 358.998 30.2557ZM359.254 28.75C359.917 28.75 360.475 28.6198 360.93 28.3594C361.389 28.099 361.735 27.7628 361.967 27.3509C362.204 26.9389 362.322 26.5057 362.322 26.0511V24.517C362.251 24.6023 362.095 24.6804 361.853 24.7514C361.617 24.8177 361.342 24.8769 361.029 24.929C360.722 24.9763 360.421 25.0189 360.127 25.0568C359.839 25.09 359.604 25.1184 359.424 25.142C358.989 25.1989 358.582 25.2912 358.203 25.419C357.829 25.5421 357.526 25.7292 357.294 25.9801C357.066 26.2263 356.953 26.5625 356.953 26.9886C356.953 27.571 357.168 28.0114 357.599 28.3097C358.035 28.6032 358.586 28.75 359.254 28.75ZM377.54 19.0909V20.5114H371.66V19.0909H377.54ZM373.421 30V17.5852C373.421 16.9602 373.568 16.4394 373.862 16.0227C374.155 15.6061 374.536 15.2936 375.005 15.0852C375.474 14.8769 375.969 14.7727 376.489 14.7727C376.901 14.7727 377.237 14.8059 377.498 14.8722C377.758 14.9384 377.952 15 378.08 15.0568L377.597 16.5057C377.512 16.4773 377.394 16.4418 377.242 16.3991C377.095 16.3565 376.901 16.3352 376.66 16.3352C376.106 16.3352 375.706 16.4749 375.46 16.7543C375.218 17.0336 375.097 17.4432 375.097 17.983V30H373.421ZM382.787 30.2557C382.096 30.2557 381.469 30.1255 380.905 29.8651C380.342 29.5999 379.894 29.2188 379.563 28.7216C379.231 28.2197 379.066 27.6136 379.066 26.9034C379.066 26.2784 379.189 25.7718 379.435 25.3835C379.681 24.9905 380.01 24.6828 380.422 24.4602C380.834 24.2377 381.289 24.072 381.786 23.9631C382.288 23.8494 382.792 23.7595 383.299 23.6932C383.962 23.608 384.499 23.544 384.911 23.5014C385.328 23.4541 385.631 23.3759 385.82 23.267C386.014 23.1581 386.111 22.9687 386.111 22.6989V22.642C386.111 21.9413 385.919 21.3968 385.536 21.0085C385.157 20.6203 384.582 20.4261 383.81 20.4261C383.01 20.4261 382.382 20.6013 381.928 20.9517C381.473 21.3021 381.154 21.6761 380.969 22.0739L379.378 21.5057C379.662 20.8428 380.041 20.3267 380.515 19.9574C380.993 19.5833 381.514 19.3229 382.077 19.1761C382.645 19.0246 383.204 18.9489 383.753 18.9489C384.104 18.9489 384.506 18.9915 384.961 19.0767C385.42 19.1572 385.863 19.3253 386.289 19.581C386.72 19.8366 387.077 20.2225 387.361 20.7386C387.645 21.2547 387.787 21.946 387.787 22.8125V30H386.111V28.5227H386.026C385.912 28.7595 385.723 29.0128 385.458 29.2827C385.193 29.5526 384.84 29.7822 384.4 29.9716C383.959 30.161 383.422 30.2557 382.787 30.2557ZM383.043 28.75C383.706 28.75 384.265 28.6198 384.719 28.3594C385.178 28.099 385.524 27.7628 385.756 27.3509C385.993 26.9389 386.111 26.5057 386.111 26.0511V24.517C386.04 24.6023 385.884 24.6804 385.642 24.7514C385.406 24.8177 385.131 24.8769 384.819 24.929C384.511 24.9763 384.21 25.0189 383.917 25.0568C383.628 25.09 383.393 25.1184 383.213 25.142C382.778 25.1989 382.371 25.2912 381.992 25.419C381.618 25.5421 381.315 25.7292 381.083 25.9801C380.855 26.2263 380.742 26.5625 380.742 26.9886C380.742 27.571 380.957 28.0114 381.388 28.3097C381.824 28.6032 382.375 28.75 383.043 28.75ZM399.376 19.0909L395.342 30H393.638L389.604 19.0909H391.422L394.433 27.7841H394.547L397.558 19.0909H399.376ZM405.63 30.2273C404.645 30.2273 403.781 29.9929 403.038 29.5241C402.299 29.0554 401.721 28.3996 401.305 27.5568C400.893 26.714 400.687 25.7292 400.687 24.6023C400.687 23.4659 400.893 22.474 401.305 21.6264C401.721 20.7789 402.299 20.1207 403.038 19.652C403.781 19.1832 404.645 18.9489 405.63 18.9489C406.615 18.9489 407.477 19.1832 408.215 19.652C408.959 20.1207 409.536 20.7789 409.948 21.6264C410.365 22.474 410.573 23.4659 410.573 24.6023C410.573 25.7292 410.365 26.714 409.948 27.5568C409.536 28.3996 408.959 29.0554 408.215 29.5241C407.477 29.9929 406.615 30.2273 405.63 30.2273ZM405.63 28.7216C406.378 28.7216 406.994 28.5298 407.477 28.1463C407.96 27.7628 408.317 27.2585 408.549 26.6335C408.781 26.0085 408.897 25.3314 408.897 24.6023C408.897 23.8731 408.781 23.1937 408.549 22.5639C408.317 21.9342 407.96 21.4252 407.477 21.0369C406.994 20.6487 406.378 20.4545 405.63 20.4545C404.882 20.4545 404.266 20.6487 403.783 21.0369C403.3 21.4252 402.943 21.9342 402.711 22.5639C402.479 23.1937 402.363 23.8731 402.363 24.6023C402.363 25.3314 402.479 26.0085 402.711 26.6335C402.943 27.2585 403.3 27.7628 403.783 28.1463C404.266 28.5298 404.882 28.7216 405.63 28.7216ZM413.132 30V19.0909H414.751V20.7386H414.865C415.064 20.1989 415.423 19.7609 415.944 19.4247C416.465 19.0885 417.052 18.9205 417.706 18.9205C417.829 18.9205 417.983 18.9228 418.167 18.9276C418.352 18.9323 418.492 18.9394 418.586 18.9489V20.6534C418.529 20.6392 418.399 20.6179 418.196 20.5895C417.997 20.5563 417.786 20.5398 417.564 20.5398C417.033 20.5398 416.56 20.651 416.143 20.8736C415.731 21.0914 415.404 21.3944 415.163 21.7827C414.926 22.1662 414.808 22.6042 414.808 23.0966V30H413.132ZM420.573 30V19.0909H422.249V30H420.573ZM421.425 17.2727C421.099 17.2727 420.817 17.1615 420.58 16.9389C420.348 16.7164 420.232 16.4489 420.232 16.1364C420.232 15.8239 420.348 15.5563 420.58 15.3338C420.817 15.1113 421.099 15 421.425 15C421.752 15 422.031 15.1113 422.263 15.3338C422.5 15.5563 422.619 15.8239 422.619 16.1364C422.619 16.4489 422.5 16.7164 422.263 16.9389C422.031 17.1615 421.752 17.2727 421.425 17.2727ZM430.064 19.0909V20.5114H424.41V19.0909H430.064ZM426.058 16.4773H427.734V26.875C427.734 27.3485 427.803 27.7036 427.94 27.9403C428.082 28.1723 428.262 28.3286 428.48 28.4091C428.702 28.4848 428.937 28.5227 429.183 28.5227C429.368 28.5227 429.519 28.5133 429.637 28.4943C429.756 28.4706 429.85 28.4517 429.922 28.4375L430.262 29.9432C430.149 29.9858 429.99 30.0284 429.787 30.071C429.583 30.1184 429.325 30.142 429.012 30.142C428.539 30.142 428.075 30.0402 427.62 29.8366C427.171 29.633 426.797 29.3229 426.498 28.9062C426.205 28.4896 426.058 27.964 426.058 27.3295V16.4773ZM435.795 30.2557C435.104 30.2557 434.476 30.1255 433.913 29.8651C433.35 29.5999 432.902 29.2188 432.571 28.7216C432.239 28.2197 432.074 27.6136 432.074 26.9034C432.074 26.2784 432.197 25.7718 432.443 25.3835C432.689 24.9905 433.018 24.6828 433.43 24.4602C433.842 24.2377 434.297 24.072 434.794 23.9631C435.296 23.8494 435.8 23.7595 436.306 23.6932C436.969 23.608 437.507 23.544 437.919 23.5014C438.335 23.4541 438.638 23.3759 438.828 23.267C439.022 23.1581 439.119 22.9687 439.119 22.6989V22.642C439.119 21.9413 438.927 21.3968 438.544 21.0085C438.165 20.6203 437.59 20.4261 436.818 20.4261C436.018 20.4261 435.39 20.6013 434.936 20.9517C434.481 21.3021 434.162 21.6761 433.977 22.0739L432.386 21.5057C432.67 20.8428 433.049 20.3267 433.522 19.9574C434.001 19.5833 434.521 19.3229 435.085 19.1761C435.653 19.0246 436.212 18.9489 436.761 18.9489C437.111 18.9489 437.514 18.9915 437.968 19.0767C438.428 19.1572 438.87 19.3253 439.297 19.581C439.727 19.8366 440.085 20.2225 440.369 20.7386C440.653 21.2547 440.795 21.946 440.795 22.8125V30H439.119V28.5227H439.034C438.92 28.7595 438.731 29.0128 438.466 29.2827C438.2 29.5526 437.848 29.7822 437.407 29.9716C436.967 30.161 436.43 30.2557 435.795 30.2557ZM436.051 28.75C436.714 28.75 437.272 28.6198 437.727 28.3594C438.186 28.099 438.532 27.7628 438.764 27.3509C439.001 26.9389 439.119 26.5057 439.119 26.0511V24.517C439.048 24.6023 438.892 24.6804 438.65 24.7514C438.413 24.8177 438.139 24.8769 437.826 24.929C437.519 24.9763 437.218 25.0189 436.924 25.0568C436.636 25.09 436.401 25.1184 436.221 25.142C435.786 25.1989 435.378 25.2912 435 25.419C434.626 25.5421 434.323 25.7292 434.091 25.9801C433.863 26.2263 433.75 26.5625 433.75 26.9886C433.75 27.571 433.965 28.0114 434.396 28.3097C434.832 28.6032 435.383 28.75 436.051 28.75ZM-9.89205 61.2273C-10.9432 61.2273 -11.8499 60.9953 -12.6122 60.5312C-13.3698 60.0625 -13.9545 59.4091 -14.3665 58.571C-14.7737 57.7282 -14.9773 56.7481 -14.9773 55.6307C-14.9773 54.5133 -14.7737 53.5284 -14.3665 52.6761C-13.9545 51.8191 -13.3816 51.1515 -12.6477 50.6733C-11.9091 50.1903 -11.0473 49.9489 -10.0625 49.9489C-9.49432 49.9489 -8.93324 50.0436 -8.37926 50.233C-7.82528 50.4223 -7.32102 50.7301 -6.86648 51.1562C-6.41193 51.5777 -6.04972 52.1364 -5.77983 52.8324C-5.50994 53.5284 -5.375 54.3854 -5.375 55.4034V56.1136H-13.7841V54.6648H-7.07955C-7.07955 54.0492 -7.20265 53.5 -7.44886 53.017C-7.69034 52.5341 -8.03598 52.1529 -8.4858 51.8736C-8.93087 51.5942 -9.45644 51.4545 -10.0625 51.4545C-10.7301 51.4545 -11.3078 51.6203 -11.7955 51.9517C-12.2784 52.2784 -12.6501 52.7045 -12.9105 53.2301C-13.1709 53.7557 -13.3011 54.3191 -13.3011 54.9205V55.8864C-13.3011 56.7102 -13.1591 57.4086 -12.875 57.9815C-12.5862 58.5497 -12.1861 58.983 -11.6747 59.2812C-11.1634 59.5748 -10.5691 59.7216 -9.89205 59.7216C-9.4517 59.7216 -9.05398 59.66 -8.69886 59.5369C-8.33901 59.4091 -8.02888 59.2197 -7.76847 58.9688C-7.50805 58.7131 -7.30682 58.3958 -7.16477 58.017L-5.54545 58.4716C-5.71591 59.0208 -6.00237 59.5038 -6.40483 59.9205C-6.80729 60.3324 -7.30445 60.6544 -7.89631 60.8864C-8.48816 61.1136 -9.15341 61.2273 -9.89205 61.2273ZM-1.14915 54.4375V61H-2.82528V50.0909H-1.20597V51.7955H-1.06392C-0.808238 51.2415 -0.419981 50.7964 0.100852 50.4602C0.621686 50.1193 1.29403 49.9489 2.1179 49.9489C2.85653 49.9489 3.50284 50.1004 4.05682 50.4034C4.6108 50.7017 5.04167 51.1562 5.34943 51.767C5.6572 52.3731 5.81108 53.1402 5.81108 54.0682V61H4.13494V54.1818C4.13494 53.3248 3.91241 52.6572 3.46733 52.179C3.02225 51.696 2.41146 51.4545 1.63494 51.4545C1.09991 51.4545 0.621686 51.5705 0.200284 51.8026C-0.216383 52.0346 -0.545454 52.3731 -0.786932 52.8182C-1.02841 53.2633 -1.14915 53.803 -1.14915 54.4375ZM13.6183 50.0909V51.5114H7.96484V50.0909H13.6183ZM9.61257 47.4773H11.2887V57.875C11.2887 58.3485 11.3574 58.7036 11.4947 58.9403C11.6367 59.1723 11.8166 59.3286 12.0344 59.4091C12.257 59.4848 12.4914 59.5227 12.7376 59.5227C12.9222 59.5227 13.0737 59.5133 13.1921 59.4943C13.3105 59.4706 13.4052 59.4517 13.4762 59.4375L13.8171 60.9432C13.7035 60.9858 13.5449 61.0284 13.3413 61.071C13.1377 61.1184 12.8796 61.142 12.5671 61.142C12.0936 61.142 11.6296 61.0402 11.1751 60.8366C10.7253 60.633 10.3512 60.3229 10.0529 59.9062C9.75935 59.4896 9.61257 58.964 9.61257 58.3295V47.4773ZM16.1396 61V50.0909H17.7589V51.7386H17.8725C18.0714 51.1989 18.4312 50.7609 18.9521 50.4247C19.4729 50.0885 20.06 49.9205 20.7134 49.9205C20.8365 49.9205 20.9904 49.9228 21.1751 49.9276C21.3597 49.9323 21.4994 49.9394 21.5941 49.9489V51.6534C21.5373 51.6392 21.4071 51.6179 21.2035 51.5895C21.0046 51.5563 20.7939 51.5398 20.5714 51.5398C20.0411 51.5398 19.5676 51.651 19.1509 51.8736C18.739 52.0914 18.4123 52.3944 18.1708 52.7827C17.9341 53.1662 17.8157 53.6042 17.8157 54.0966V61H16.1396ZM27.8228 61.2273C26.7717 61.2273 25.8649 60.9953 25.1026 60.5312C24.3451 60.0625 23.7603 59.4091 23.3484 58.571C22.9412 57.7282 22.7376 56.7481 22.7376 55.6307C22.7376 54.5133 22.9412 53.5284 23.3484 52.6761C23.7603 51.8191 24.3332 51.1515 25.0671 50.6733C25.8058 50.1903 26.6675 49.9489 27.6523 49.9489C28.2205 49.9489 28.7816 50.0436 29.3356 50.233C29.8896 50.4223 30.3938 50.7301 30.8484 51.1562C31.3029 51.5777 31.6651 52.1364 31.935 52.8324C32.2049 53.5284 32.3398 54.3854 32.3398 55.4034V56.1136H23.9308V54.6648H30.6353C30.6353 54.0492 30.5122 53.5 30.266 53.017C30.0245 52.5341 29.6789 52.1529 29.229 51.8736C28.784 51.5942 28.2584 51.4545 27.6523 51.4545C26.9847 51.4545 26.4071 51.6203 25.9194 51.9517C25.4364 52.2784 25.0647 52.7045 24.8043 53.2301C24.5439 53.7557 24.4137 54.3191 24.4137 54.9205V55.8864C24.4137 56.7102 24.5558 57.4086 24.8398 57.9815C25.1287 58.5497 25.5288 58.983 26.0401 59.2812C26.5515 59.5748 27.1457 59.7216 27.8228 59.7216C28.2631 59.7216 28.6609 59.66 29.016 59.5369C29.3758 59.4091 29.686 59.2197 29.9464 58.9688C30.2068 58.7131 30.408 58.3958 30.5501 58.017L32.1694 58.4716C31.9989 59.0208 31.7125 59.5038 31.31 59.9205C30.9076 60.3324 30.4104 60.6544 29.8185 60.8864C29.2267 61.1136 28.5614 61.2273 27.8228 61.2273ZM44.9464 61.2273C43.9615 61.2273 43.0974 60.9929 42.354 60.5241C41.6154 60.0554 41.0378 59.3996 40.6211 58.5568C40.2092 57.714 40.0032 56.7292 40.0032 55.6023C40.0032 54.4659 40.2092 53.474 40.6211 52.6264C41.0378 51.7789 41.6154 51.1207 42.354 50.652C43.0974 50.1832 43.9615 49.9489 44.9464 49.9489C45.9312 49.9489 46.793 50.1832 47.5316 50.652C48.275 51.1207 48.8526 51.7789 49.2646 52.6264C49.6812 53.474 49.8896 54.4659 49.8896 55.6023C49.8896 56.7292 49.6812 57.714 49.2646 58.5568C48.8526 59.3996 48.275 60.0554 47.5316 60.5241C46.793 60.9929 45.9312 61.2273 44.9464 61.2273ZM44.9464 59.7216C45.6945 59.7216 46.31 59.5298 46.793 59.1463C47.2759 58.7628 47.6334 58.2585 47.8654 57.6335C48.0974 57.0085 48.2134 56.3314 48.2134 55.6023C48.2134 54.8731 48.0974 54.1937 47.8654 53.5639C47.6334 52.9342 47.2759 52.4252 46.793 52.0369C46.31 51.6487 45.6945 51.4545 44.9464 51.4545C44.1983 51.4545 43.5827 51.6487 43.0998 52.0369C42.6168 52.4252 42.2594 52.9342 42.0273 53.5639C41.7953 54.1937 41.6793 54.8731 41.6793 55.6023C41.6793 56.3314 41.7953 57.0085 42.0273 57.6335C42.2594 58.2585 42.6168 58.7628 43.0998 59.1463C43.5827 59.5298 44.1983 59.7216 44.9464 59.7216ZM60.1754 52.5341L58.6697 52.9602C58.575 52.7093 58.4354 52.4654 58.2507 52.2287C58.0708 51.9872 57.8246 51.7884 57.5121 51.6321C57.1996 51.4759 56.7995 51.3977 56.3118 51.3977C55.6442 51.3977 55.0878 51.5516 54.6428 51.8594C54.2024 52.1624 53.9822 52.5483 53.9822 53.017C53.9822 53.4337 54.1338 53.7628 54.4368 54.0043C54.7398 54.2457 55.2133 54.447 55.8572 54.608L57.4766 55.0057C58.4519 55.2424 59.1787 55.6046 59.657 56.0923C60.1352 56.5753 60.3743 57.1979 60.3743 57.9602C60.3743 58.5852 60.1944 59.1439 59.8345 59.6364C59.4794 60.1288 58.9822 60.517 58.343 60.8011C57.7038 61.0852 56.9605 61.2273 56.1129 61.2273C55.0002 61.2273 54.0793 60.9858 53.3501 60.5028C52.621 60.0199 52.1593 59.3144 51.9652 58.3864L53.5561 57.9886C53.7076 58.5758 53.9941 59.0161 54.4155 59.3097C54.8416 59.6032 55.398 59.75 56.0845 59.75C56.8658 59.75 57.486 59.5843 57.9453 59.2528C58.4093 58.9167 58.6413 58.5142 58.6413 58.0455C58.6413 57.6667 58.5088 57.3494 58.2436 57.0938C57.9785 56.8333 57.5713 56.6392 57.022 56.5114L55.2038 56.0852C54.2048 55.8485 53.4709 55.4815 53.0021 54.9844C52.5381 54.4825 52.3061 53.8551 52.3061 53.1023C52.3061 52.4867 52.4789 51.9422 52.8246 51.4688C53.175 50.9953 53.6508 50.6236 54.2521 50.3537C54.8582 50.0838 55.5447 49.9489 56.3118 49.9489C57.3913 49.9489 58.2389 50.1856 58.8544 50.6591C59.4747 51.1326 59.915 51.7576 60.1754 52.5341ZM72.2156 61.1776C71.387 61.1776 70.6365 60.9645 69.9641 60.5384C69.2965 60.1075 68.7662 59.4754 68.3732 58.642C67.985 57.804 67.7908 56.7765 67.7908 55.5597C67.7908 54.3097 67.9921 53.2704 68.3945 52.4418C68.797 51.6084 69.332 50.9858 69.9996 50.5739C70.672 50.1572 71.4083 49.9489 72.2085 49.9489C72.8192 49.9489 73.3282 50.053 73.7354 50.2614C74.1474 50.465 74.4788 50.7206 74.7298 51.0284C74.9854 51.3314 75.1796 51.6297 75.3121 51.9233H75.4045V46.4545H78.4229V61H75.44V59.2528H75.3121C75.1701 59.5559 74.9689 59.8565 74.7085 60.1548C74.4528 60.4484 74.119 60.6922 73.707 60.8864C73.2998 61.0805 72.8027 61.1776 72.2156 61.1776ZM73.1744 58.7699C73.6621 58.7699 74.074 58.6373 74.4102 58.3722C74.7511 58.1023 75.0115 57.7259 75.1914 57.2429C75.3761 56.7599 75.4684 56.1941 75.4684 55.5455C75.4684 54.8968 75.3784 54.3333 75.1985 53.8551C75.0186 53.3769 74.7582 53.0076 74.4173 52.7472C74.0763 52.4867 73.6621 52.3565 73.1744 52.3565C72.6772 52.3565 72.2582 52.4915 71.9173 52.7614C71.5763 53.0312 71.3183 53.4053 71.1431 53.8835C70.9679 54.3617 70.8803 54.9157 70.8803 55.5455C70.8803 56.1799 70.9679 56.741 71.1431 57.2287C71.323 57.7116 71.5811 58.0904 71.9173 58.3651C72.2582 58.6349 72.6772 58.7699 73.1744 58.7699ZM85.8821 61.2131C84.7599 61.2131 83.794 60.9858 82.9844 60.5312C82.1795 60.072 81.5592 59.4233 81.1236 58.5852C80.688 57.7424 80.4702 56.7457 80.4702 55.5952C80.4702 54.473 80.688 53.4882 81.1236 52.6406C81.5592 51.7931 82.1723 51.1326 82.9631 50.6591C83.7585 50.1856 84.6913 49.9489 85.7614 49.9489C86.4811 49.9489 87.151 50.0649 87.7713 50.2969C88.3963 50.5241 88.9408 50.8674 89.4048 51.3267C89.8736 51.786 90.2382 52.3636 90.4986 53.0597C90.759 53.7509 90.8892 54.5606 90.8892 55.4886V56.3196H81.6776V54.4446H88.0412C88.0412 54.009 87.9465 53.6231 87.7571 53.2869C87.5677 52.9508 87.3049 52.688 86.9688 52.4986C86.6373 52.3045 86.2514 52.2074 85.8111 52.2074C85.3518 52.2074 84.9446 52.3139 84.5895 52.527C84.2391 52.7353 83.9645 53.017 83.7656 53.3722C83.5668 53.7225 83.465 54.1132 83.4602 54.544V56.3267C83.4602 56.8665 83.5597 57.3329 83.7585 57.7259C83.9621 58.1188 84.2486 58.4219 84.6179 58.6349C84.9872 58.848 85.4252 58.9545 85.9318 58.9545C86.268 58.9545 86.5758 58.9072 86.8551 58.8125C87.1345 58.7178 87.3736 58.5758 87.5724 58.3864C87.7713 58.197 87.9228 57.965 88.027 57.6903L90.8253 57.875C90.6832 58.5473 90.392 59.1345 89.9517 59.6364C89.5161 60.1335 88.9527 60.5218 88.2614 60.8011C87.5748 61.0758 86.7817 61.2131 85.8821 61.2131ZM102.741 50.0909L98.9272 61H95.5181L91.7042 50.0909H94.9002L97.1658 57.8963H97.2795L99.538 50.0909H102.741ZM113.366 53.2017L110.596 53.3722C110.549 53.1354 110.447 52.9223 110.291 52.733C110.135 52.5388 109.929 52.3849 109.673 52.2713C109.422 52.1529 109.121 52.0938 108.771 52.0938C108.302 52.0938 107.907 52.1932 107.585 52.392C107.263 52.5862 107.102 52.8466 107.102 53.1733C107.102 53.4337 107.206 53.6539 107.414 53.8338C107.623 54.0137 107.98 54.1581 108.487 54.267L110.461 54.6648C111.522 54.8826 112.313 55.233 112.833 55.7159C113.354 56.1989 113.615 56.8333 113.615 57.6193C113.615 58.3343 113.404 58.9616 112.983 59.5014C112.566 60.0412 111.993 60.4626 111.264 60.7656C110.539 61.0639 109.704 61.2131 108.757 61.2131C107.313 61.2131 106.162 60.9124 105.305 60.3111C104.453 59.705 103.953 58.8812 103.806 57.8395L106.782 57.6832C106.872 58.1236 107.09 58.4598 107.436 58.6918C107.781 58.919 108.224 59.0327 108.764 59.0327C109.294 59.0327 109.72 58.9309 110.042 58.7273C110.369 58.5189 110.535 58.2514 110.539 57.9247C110.535 57.6501 110.419 57.4252 110.191 57.25C109.964 57.0701 109.614 56.9328 109.14 56.8381L107.251 56.4616C106.186 56.2486 105.393 55.8793 104.872 55.3537C104.356 54.8281 104.098 54.1581 104.098 53.3438C104.098 52.643 104.287 52.0393 104.666 51.5327C105.049 51.026 105.587 50.6354 106.278 50.3608C106.974 50.0862 107.788 49.9489 108.721 49.9489C110.099 49.9489 111.183 50.2401 111.974 50.8224C112.77 51.4048 113.234 52.1979 113.366 53.2017ZM124.682 61.2557C123.991 61.2557 123.363 61.1255 122.8 60.8651C122.236 60.5999 121.789 60.2188 121.457 59.7216C121.126 59.2197 120.96 58.6136 120.96 57.9034C120.96 57.2784 121.083 56.7718 121.33 56.3835C121.576 55.9905 121.905 55.6828 122.317 55.4602C122.729 55.2377 123.183 55.072 123.68 54.9631C124.182 54.8494 124.687 54.7595 125.193 54.6932C125.856 54.608 126.393 54.544 126.805 54.5014C127.222 54.4541 127.525 54.3759 127.714 54.267C127.909 54.1581 128.006 53.9687 128.006 53.6989V53.642C128.006 52.9413 127.814 52.3968 127.43 52.0085C127.052 51.6203 126.476 51.4261 125.705 51.4261C124.904 51.4261 124.277 51.6013 123.822 51.9517C123.368 52.3021 123.048 52.6761 122.864 53.0739L121.273 52.5057C121.557 51.8428 121.936 51.3267 122.409 50.9574C122.887 50.5833 123.408 50.3229 123.972 50.1761C124.54 50.0246 125.098 49.9489 125.648 49.9489C125.998 49.9489 126.401 49.9915 126.855 50.0767C127.314 50.1572 127.757 50.3253 128.183 50.581C128.614 50.8366 128.972 51.2225 129.256 51.7386C129.54 52.2547 129.682 52.946 129.682 53.8125V61H128.006V59.5227H127.92C127.807 59.7595 127.617 60.0128 127.352 60.2827C127.087 60.5526 126.734 60.7822 126.294 60.9716C125.854 61.161 125.316 61.2557 124.682 61.2557ZM124.938 59.75C125.6 59.75 126.159 59.6198 126.614 59.3594C127.073 59.099 127.419 58.7628 127.651 58.3509C127.887 57.9389 128.006 57.5057 128.006 57.0511V55.517C127.935 55.6023 127.778 55.6804 127.537 55.7514C127.3 55.8177 127.026 55.8769 126.713 55.929C126.405 55.9763 126.105 56.0189 125.811 56.0568C125.522 56.09 125.288 56.1184 125.108 56.142C124.672 56.1989 124.265 56.2912 123.886 56.419C123.512 56.5421 123.209 56.7292 122.977 56.9801C122.75 57.2263 122.636 57.5625 122.636 57.9886C122.636 58.571 122.852 59.0114 123.283 59.3097C123.718 59.6032 124.27 59.75 124.938 59.75ZM137.173 61.2273C136.188 61.2273 135.324 60.9929 134.581 60.5241C133.842 60.0554 133.264 59.3996 132.848 58.5568C132.436 57.714 132.23 56.7292 132.23 55.6023C132.23 54.4659 132.436 53.474 132.848 52.6264C133.264 51.7789 133.842 51.1207 134.581 50.652C135.324 50.1832 136.188 49.9489 137.173 49.9489C138.158 49.9489 139.02 50.1832 139.758 50.652C140.502 51.1207 141.079 51.7789 141.491 52.6264C141.908 53.474 142.116 54.4659 142.116 55.6023C142.116 56.7292 141.908 57.714 141.491 58.5568C141.079 59.3996 140.502 60.0554 139.758 60.5241C139.02 60.9929 138.158 61.2273 137.173 61.2273ZM137.173 59.7216C137.921 59.7216 138.537 59.5298 139.02 59.1463C139.502 58.7628 139.86 58.2585 140.092 57.6335C140.324 57.0085 140.44 56.3314 140.44 55.6023C140.44 54.8731 140.324 54.1937 140.092 53.5639C139.86 52.9342 139.502 52.4252 139.02 52.0369C138.537 51.6487 137.921 51.4545 137.173 51.4545C136.425 51.4545 135.809 51.6487 135.326 52.0369C134.843 52.4252 134.486 52.9342 134.254 53.5639C134.022 54.1937 133.906 54.8731 133.906 55.6023C133.906 56.3314 134.022 57.0085 134.254 57.6335C134.486 58.2585 134.843 58.7628 135.326 59.1463C135.809 59.5298 136.425 59.7216 137.173 59.7216ZM150.3 61V50.0909H151.919V51.7386H152.033C152.232 51.1989 152.591 50.7609 153.112 50.4247C153.633 50.0885 154.22 49.9205 154.874 49.9205C154.997 49.9205 155.151 49.9228 155.335 49.9276C155.52 49.9323 155.66 49.9394 155.754 49.9489V51.6534C155.697 51.6392 155.567 51.6179 155.364 51.5895C155.165 51.5563 154.954 51.5398 154.732 51.5398C154.201 51.5398 153.728 51.651 153.311 51.8736C152.899 52.0914 152.572 52.3944 152.331 52.7827C152.094 53.1662 151.976 53.6042 151.976 54.0966V61H150.3ZM161.983 61.2273C160.932 61.2273 160.025 60.9953 159.263 60.5312C158.505 60.0625 157.92 59.4091 157.509 58.571C157.101 57.7282 156.898 56.7481 156.898 55.6307C156.898 54.5133 157.101 53.5284 157.509 52.6761C157.92 51.8191 158.493 51.1515 159.227 50.6733C159.966 50.1903 160.828 49.9489 161.812 49.9489C162.381 49.9489 162.942 50.0436 163.496 50.233C164.05 50.4223 164.554 50.7301 165.009 51.1562C165.463 51.5777 165.825 52.1364 166.095 52.8324C166.365 53.5284 166.5 54.3854 166.5 55.4034V56.1136H158.091V54.6648H164.795C164.795 54.0492 164.672 53.5 164.426 53.017C164.185 52.5341 163.839 52.1529 163.389 51.8736C162.944 51.5942 162.419 51.4545 161.812 51.4545C161.145 51.4545 160.567 51.6203 160.08 51.9517C159.597 52.2784 159.225 52.7045 158.964 53.2301C158.704 53.7557 158.574 54.3191 158.574 54.9205V55.8864C158.574 56.7102 158.716 57.4086 159 57.9815C159.289 58.5497 159.689 58.983 160.2 59.2812C160.712 59.5748 161.306 59.7216 161.983 59.7216C162.423 59.7216 162.821 59.66 163.176 59.5369C163.536 59.4091 163.846 59.2197 164.107 58.9688C164.367 58.7131 164.568 58.3958 164.71 58.017L166.33 58.4716C166.159 59.0208 165.873 59.5038 165.47 59.9205C165.068 60.3324 164.571 60.6544 163.979 60.8864C163.387 61.1136 162.722 61.2273 161.983 61.2273ZM173.169 61.2273C172.26 61.2273 171.457 60.9976 170.761 60.5384C170.065 60.0743 169.521 59.4209 169.128 58.5781C168.735 57.7306 168.538 56.7292 168.538 55.5739C168.538 54.428 168.735 53.4337 169.128 52.5909C169.521 51.7481 170.068 51.0971 170.768 50.6378C171.469 50.1785 172.279 49.9489 173.197 49.9489C173.908 49.9489 174.469 50.0672 174.881 50.304C175.297 50.536 175.615 50.8011 175.832 51.0994C176.055 51.393 176.228 51.6345 176.351 51.8239H176.493V46.4545H178.169V61H176.55V59.3239H176.351C176.228 59.5227 176.053 59.7737 175.825 60.0767C175.598 60.375 175.274 60.6425 174.852 60.8793C174.431 61.1113 173.87 61.2273 173.169 61.2273ZM173.396 59.7216C174.069 59.7216 174.637 59.5464 175.101 59.196C175.565 58.8409 175.918 58.3509 176.159 57.7259C176.401 57.0961 176.521 56.3693 176.521 55.5455C176.521 54.7311 176.403 54.0185 176.166 53.4077C175.929 52.7921 175.579 52.3139 175.115 51.973C174.651 51.6274 174.078 51.4545 173.396 51.4545C172.686 51.4545 172.094 51.6368 171.621 52.0014C171.152 52.3613 170.799 52.8513 170.562 53.4716C170.33 54.0871 170.214 54.7784 170.214 55.5455C170.214 56.322 170.333 57.0275 170.57 57.6619C170.811 58.2917 171.166 58.7936 171.635 59.1676C172.108 59.5369 172.696 59.7216 173.396 59.7216ZM185.903 61.2273C184.919 61.2273 184.054 60.9929 183.311 60.5241C182.572 60.0554 181.995 59.3996 181.578 58.5568C181.166 57.714 180.96 56.7292 180.96 55.6023C180.96 54.4659 181.166 53.474 181.578 52.6264C181.995 51.7789 182.572 51.1207 183.311 50.652C184.054 50.1832 184.919 49.9489 185.903 49.9489C186.888 49.9489 187.75 50.1832 188.489 50.652C189.232 51.1207 189.81 51.7789 190.222 52.6264C190.638 53.474 190.847 54.4659 190.847 55.6023C190.847 56.7292 190.638 57.714 190.222 58.5568C189.81 59.3996 189.232 60.0554 188.489 60.5241C187.75 60.9929 186.888 61.2273 185.903 61.2273ZM185.903 59.7216C186.652 59.7216 187.267 59.5298 187.75 59.1463C188.233 58.7628 188.59 58.2585 188.822 57.6335C189.054 57.0085 189.17 56.3314 189.17 55.6023C189.17 54.8731 189.054 54.1937 188.822 53.5639C188.59 52.9342 188.233 52.4252 187.75 52.0369C187.267 51.6487 186.652 51.4545 185.903 51.4545C185.155 51.4545 184.54 51.6487 184.057 52.0369C183.574 52.4252 183.216 52.9342 182.984 53.5639C182.752 54.1937 182.636 54.8731 182.636 55.6023C182.636 56.3314 182.752 57.0085 182.984 57.6335C183.216 58.2585 183.574 58.7628 184.057 59.1463C184.54 59.5298 185.155 59.7216 185.903 59.7216ZM193.405 61V50.0909H195.025V51.7386H195.138C195.337 51.1989 195.697 50.7609 196.218 50.4247C196.739 50.0885 197.326 49.9205 197.979 49.9205C198.102 49.9205 198.256 49.9228 198.441 49.9276C198.625 49.9323 198.765 49.9394 198.86 49.9489V51.6534C198.803 51.6392 198.673 51.6179 198.469 51.5895C198.27 51.5563 198.06 51.5398 197.837 51.5398C197.307 51.5398 196.833 51.651 196.417 51.8736C196.005 52.0914 195.678 52.3944 195.436 52.7827C195.2 53.1662 195.081 53.6042 195.081 54.0966V61H193.405ZM206.472 61V50.0909H208.091V51.7955H208.233C208.46 51.2131 208.827 50.7609 209.334 50.4389C209.84 50.1122 210.449 49.9489 211.159 49.9489C211.879 49.9489 212.478 50.1122 212.956 50.4389C213.439 50.7609 213.815 51.2131 214.085 51.7955H214.199C214.478 51.232 214.897 50.7846 215.456 50.4531C216.015 50.117 216.685 49.9489 217.466 49.9489C218.441 49.9489 219.239 50.2543 219.859 50.8651C220.48 51.4711 220.79 52.4157 220.79 53.6989V61H219.114V53.6989C219.114 52.8939 218.893 52.3187 218.453 51.973C218.013 51.6274 217.494 51.4545 216.898 51.4545C216.131 51.4545 215.536 51.6866 215.115 52.1506C214.694 52.6098 214.483 53.1922 214.483 53.8977V61H212.778V53.5284C212.778 52.9081 212.577 52.4086 212.175 52.0298C211.772 51.6463 211.254 51.4545 210.619 51.4545C210.184 51.4545 209.777 51.5705 209.398 51.8026C209.024 52.0346 208.721 52.3565 208.489 52.7685C208.261 53.1757 208.148 53.6468 208.148 54.1818V61H206.472ZM230.729 56.5398V50.0909H232.406V61H230.729V59.1534H230.616C230.36 59.7074 229.962 60.1785 229.423 60.5668C228.883 60.9503 228.201 61.142 227.377 61.142C226.695 61.142 226.089 60.9929 225.559 60.6946C225.029 60.3916 224.612 59.937 224.309 59.331C224.006 58.7202 223.854 57.9508 223.854 57.0227V50.0909H225.531V56.9091C225.531 57.7045 225.753 58.339 226.198 58.8125C226.648 59.286 227.221 59.5227 227.917 59.5227C228.334 59.5227 228.757 59.4162 229.188 59.2031C229.624 58.9901 229.988 58.6634 230.282 58.223C230.58 57.7827 230.729 57.2216 230.729 56.5398ZM237.152 54.4375V61H235.475V50.0909H237.095V51.7955H237.237C237.493 51.2415 237.881 50.7964 238.402 50.4602C238.922 50.1193 239.595 49.9489 240.419 49.9489C241.157 49.9489 241.804 50.1004 242.358 50.4034C242.912 50.7017 243.342 51.1562 243.65 51.767C243.958 52.3731 244.112 53.1402 244.112 54.0682V61H242.436V54.1818C242.436 53.3248 242.213 52.6572 241.768 52.179C241.323 51.696 240.712 51.4545 239.936 51.4545C239.401 51.4545 238.922 51.5705 238.501 51.8026C238.084 52.0346 237.755 52.3731 237.514 52.8182C237.272 53.2633 237.152 53.803 237.152 54.4375ZM251.294 61.2273C250.385 61.2273 249.582 60.9976 248.886 60.5384C248.19 60.0743 247.646 59.4209 247.253 58.5781C246.86 57.7306 246.663 56.7292 246.663 55.5739C246.663 54.428 246.86 53.4337 247.253 52.5909C247.646 51.7481 248.193 51.0971 248.893 50.6378C249.594 50.1785 250.404 49.9489 251.322 49.9489C252.033 49.9489 252.594 50.0672 253.006 50.304C253.422 50.536 253.74 50.8011 253.957 51.0994C254.18 51.393 254.353 51.6345 254.476 51.8239H254.618V46.4545H256.294V61H254.675V59.3239H254.476C254.353 59.5227 254.178 59.7737 253.95 60.0767C253.723 60.375 253.399 60.6425 252.977 60.8793C252.556 61.1113 251.995 61.2273 251.294 61.2273ZM251.521 59.7216C252.194 59.7216 252.762 59.5464 253.226 59.196C253.69 58.8409 254.043 58.3509 254.284 57.7259C254.526 57.0961 254.646 56.3693 254.646 55.5455C254.646 54.7311 254.528 54.0185 254.291 53.4077C254.054 52.7921 253.704 52.3139 253.24 51.973C252.776 51.6274 252.203 51.4545 251.521 51.4545C250.811 51.4545 250.219 51.6368 249.746 52.0014C249.277 52.3613 248.924 52.8513 248.688 53.4716C248.455 54.0871 248.339 54.7784 248.339 55.5455C248.339 56.322 248.458 57.0275 248.695 57.6619C248.936 58.2917 249.291 58.7936 249.76 59.1676C250.233 59.5369 250.821 59.7216 251.521 59.7216ZM264.028 61.2273C263.044 61.2273 262.179 60.9929 261.436 60.5241C260.697 60.0554 260.12 59.3996 259.703 58.5568C259.291 57.714 259.085 56.7292 259.085 55.6023C259.085 54.4659 259.291 53.474 259.703 52.6264C260.12 51.7789 260.697 51.1207 261.436 50.652C262.179 50.1832 263.044 49.9489 264.028 49.9489C265.013 49.9489 265.875 50.1832 266.614 50.652C267.357 51.1207 267.935 51.7789 268.347 52.6264C268.763 53.474 268.972 54.4659 268.972 55.6023C268.972 56.7292 268.763 57.714 268.347 58.5568C267.935 59.3996 267.357 60.0554 266.614 60.5241C265.875 60.9929 265.013 61.2273 264.028 61.2273ZM264.028 59.7216C264.777 59.7216 265.392 59.5298 265.875 59.1463C266.358 58.7628 266.715 58.2585 266.947 57.6335C267.179 57.0085 267.295 56.3314 267.295 55.6023C267.295 54.8731 267.179 54.1937 266.947 53.5639C266.715 52.9342 266.358 52.4252 265.875 52.0369C265.392 51.6487 264.777 51.4545 264.028 51.4545C263.28 51.4545 262.665 51.6487 262.182 52.0369C261.699 52.4252 261.341 52.9342 261.109 53.5639C260.877 54.1937 260.761 54.8731 260.761 55.6023C260.761 56.3314 260.877 57.0085 261.109 57.6335C261.341 58.2585 261.699 58.7628 262.182 59.1463C262.665 59.5298 263.28 59.7216 264.028 59.7216ZM273.746 46.4545L273.604 56.9091H271.956L271.814 46.4545H273.746ZM272.78 61.1136C272.43 61.1136 272.129 60.9882 271.878 60.7372C271.627 60.4863 271.502 60.1856 271.502 59.8352C271.502 59.4848 271.627 59.1842 271.878 58.9332C272.129 58.6823 272.43 58.5568 272.78 58.5568C273.131 58.5568 273.431 58.6823 273.682 58.9332C273.933 59.1842 274.059 59.4848 274.059 59.8352C274.059 60.0672 273.999 60.2803 273.881 60.4744C273.767 60.6686 273.614 60.8248 273.419 60.9432C273.23 61.0568 273.017 61.1136 272.78 61.1136Z" fill="#C7BAB3"/>
</g>
</g>
</g>
</g>
</g>
<g id="Button">
<rect x="-16" y="-16" width="56" height="56" rx="8" fill="#A45A49"/>
<g id="chevrons-down">
<path id="Vector" d="M7 13L12 18L17 13" stroke="white" stroke-width="2" stroke-linecap="round" stroke-linejoin="round"/>
<path id="Vector_2" d="M7 6L12 11L17 6" stroke="white" stroke-width="2" stroke-linecap="round" stroke-linejoin="round"/>
</g>
</g>
</g>
<defs>
<clipPath id="clip0_1_5">
<rect width="1440" height="1451" fill="white" transform="translate(-176 -439)"/>
</clipPath>
<clipPath id="clip1_1_5">
<rect width="1440" height="504" fill="white" transform="translate(-176 -371)"/>
</clipPath>
</defs>
</svg>
